<?xml version="1.0" standalone="no"?>
<!DOCTYPE svg PUBLIC "-//W3C//DTD SVG 20010904//EN"
 "http://www.w3.org/TR/2001/REC-SVG-20010904/DTD/svg10.dtd">
<svg version="1.0" xmlns="http://www.w3.org/2000/svg"
 width="700.000000pt" height="700.000000pt" viewBox="0 0 700.000000 700.000000"
 preserveAspectRatio="xMidYMid meet">
<metadata>
Created by potrace 1.14, written by Peter Selinger 2001-2017
</metadata>
<g transform="translate(0.000000,700.000000) scale(0.100000,-0.100000)"
fill="#000000" stroke="none">
<path d="M3278 6996 c-1 -2 -39 -6 -83 -10 -114 -8 -270 -31 -420 -61 -233
-46 -556 -157 -790 -271 -180 -87 -448 -247 -555 -331 -8 -6 -51 -40 -95 -74
-338 -263 -653 -628 -875 -1014 -47 -82 -170 -327 -170 -339 0 -3 -11 -29 -24
-58 -52 -116 -142 -389 -162 -491 -2 -10 -6 -27 -9 -37 -3 -10 -8 -29 -10 -42
-3 -13 -11 -57 -20 -98 -22 -115 -30 -160 -41 -255 -26 -229 -26 -663 1 -827
2 -13 7 -45 10 -73 4 -27 8 -63 11 -80 2 -16 8 -52 14 -80 6 -27 12 -59 14
-71 60 -312 212 -714 383 -1013 61 -106 219 -348 234 -357 7 -4 152 106 179
136 3 3 46 39 95 80 83 69 130 109 159 135 6 6 90 75 186 155 168 140 220 183
244 205 6 6 65 55 131 110 66 54 127 105 135 112 34 31 69 60 115 98 27 22 80
67 119 100 39 34 92 78 119 99 26 21 47 41 47 45 0 3 -19 27 -43 52 -23 26
-73 82 -112 125 -77 86 -140 157 -197 219 -20 22 -45 49 -55 61 -20 24 -145
162 -177 197 -12 13 -50 56 -86 96 -36 40 -81 90 -100 111 -19 20 -66 73 -105
116 -38 43 -79 88 -90 100 -11 12 -35 38 -53 58 l-32 36 31 27 c17 16 45 42
63 58 28 26 116 105 196 175 14 12 41 34 60 48 19 15 116 94 215 177 99 83
236 198 305 255 69 58 127 107 130 110 3 3 46 39 95 80 50 41 101 85 115 97
14 12 46 39 72 60 39 32 556 466 609 511 16 14 16 17 -1 56 -16 39 -21 56 -35
126 -7 31 -7 153 0 199 25 181 163 371 330 453 156 78 313 90 475 38 210 -68
364 -237 416 -458 21 -87 14 -231 -16 -324 -58 -181 -209 -335 -385 -393 -11
-3 -22 -6 -25 -7 -3 0 -12 -4 -20 -8 -19 -10 -104 -23 -152 -22 -30 0 -132 11
-158 17 -24 5 -112 40 -140 54 l-34 19 -46 -37 c-24 -20 -54 -45 -66 -56 -12
-11 -41 -36 -65 -55 -24 -19 -77 -64 -119 -100 -42 -36 -99 -83 -125 -105 -27
-22 -135 -112 -239 -200 -216 -182 -570 -478 -756 -634 -69 -57 -129 -108
-135 -113 -6 -6 -6 -11 0 -16 6 -4 30 -30 55 -57 120 -134 396 -441 464 -516
47 -51 171 -190 206 -229 8 -9 49 -54 90 -100 41 -45 80 -90 86 -98 10 -14 18
-11 60 23 72 58 178 147 184 154 3 4 43 38 90 76 47 38 96 79 110 91 14 12
113 96 220 185 107 90 197 165 200 169 3 3 17 15 32 26 15 12 51 41 80 66 63
54 193 163 413 347 88 74 164 137 168 141 4 4 -1 28 -12 54 -100 232 -68 514
81 714 91 124 245 228 398 269 89 24 272 24 359 -1 113 -31 225 -93 312 -173
86 -79 185 -251 204 -354 24 -126 25 -222 5 -312 -104 -461 -589 -701 -1008
-501 -51 25 -98 42 -104 38 -14 -9 -53 -41 -77 -64 -9 -8 -95 -80 -191 -160
-160 -133 -213 -177 -244 -205 -6 -5 -51 -44 -101 -85 -49 -41 -92 -77 -95
-80 -3 -3 -45 -39 -95 -80 -49 -41 -92 -77 -95 -80 -3 -3 -57 -48 -120 -100
-63 -52 -120 -99 -126 -105 -6 -5 -97 -82 -201 -170 -164 -136 -189 -162 -180
-176 7 -9 46 -53 87 -99 41 -45 86 -94 99 -109 13 -14 40 -44 60 -66 20 -22
95 -105 166 -185 71 -80 132 -147 135 -150 3 -3 43 -48 90 -100 47 -52 87 -97
90 -100 3 -3 64 -70 135 -150 71 -80 149 -166 173 -192 25 -26 51 -56 59 -68
8 -11 18 -20 23 -20 7 0 52 34 120 93 14 12 68 58 120 101 52 44 154 129 225
189 72 60 152 128 179 151 28 22 86 72 130 109 45 38 90 76 101 85 42 34 140
117 145 122 3 3 57 48 120 100 63 52 120 99 126 105 6 5 32 28 59 50 26 22 53
45 59 50 6 6 50 43 99 84 48 40 87 75 87 77 0 2 -13 24 -29 49 -76 120 -121
297 -116 452 16 443 370 798 805 806 124 2 194 -8 294 -42 160 -55 324 -174
409 -300 17 -26 17 -25 12 64 -8 127 -14 186 -31 305 -4 25 -8 52 -9 60 -8 63
-17 106 -70 330 -54 230 -215 618 -351 846 -33 55 -61 104 -64 109 -12 23
-138 205 -184 265 -269 350 -596 645 -970 873 -96 59 -315 173 -406 212 -36
15 -80 34 -98 42 -172 75 -536 176 -747 207 -23 4 -52 8 -65 11 -13 3 -52 7
-86 11 -33 3 -74 8 -90 10 -32 5 -540 14 -546 10z"/>
<path d="M6820 2498 c-77 -66 -220 -134 -348 -162 -62 -14 -276 -16 -333 -2
-58 13 -150 46 -198 71 -44 22 -55 24 -69 13 -9 -7 -114 -94 -232 -193 -118
-99 -231 -194 -251 -210 -20 -17 -119 -100 -220 -185 -101 -85 -192 -162 -203
-170 -10 -8 -23 -20 -30 -25 -6 -6 -85 -73 -176 -149 -91 -76 -185 -155 -210
-176 -25 -21 -124 -104 -220 -185 -96 -81 -215 -184 -264 -229 -132 -120 -122
-117 -165 -70 -43 47 -178 198 -204 228 -10 11 -53 59 -96 106 -43 47 -141
155 -217 240 -77 85 -153 171 -171 190 -17 19 -40 45 -50 56 -10 12 -56 64
-103 115 -47 51 -105 116 -130 143 -25 28 -50 56 -57 63 -6 7 -59 67 -118 133
-59 66 -109 120 -112 120 -4 0 -293 -238 -303 -250 -3 -3 -102 -87 -220 -185
-118 -99 -220 -184 -226 -190 -6 -5 -30 -26 -54 -45 -24 -19 -48 -40 -54 -45
-6 -6 -81 -69 -166 -140 -85 -71 -160 -134 -166 -140 -7 -5 -31 -26 -54 -44
-23 -19 -48 -40 -54 -46 -6 -5 -59 -50 -118 -100 -60 -49 -108 -92 -108 -96 0
-8 97 -94 214 -187 91 -73 287 -207 401 -274 375 -221 847 -385 1274 -444 25
-3 57 -7 70 -10 167 -26 681 -25 843 1 13 2 46 6 73 10 28 3 57 8 65 10 8 2
31 6 50 9 261 39 621 155 905 291 808 386 1452 1089 1763 1925 52 141 86 249
80 255 -2 2 -19 -10 -38 -27z"/>
</g>
</svg>
